<?xml version="1.0" ?><svg height="584" id="svg3302" version="1.0" width="584" xmlns="http://www.w3.org/2000/svg" xmlns:cc="http://web.resource.org/cc/" xmlns:dc="http://purl.org/dc/elements/1.1/" xmlns:inkscape="http://www.inkscape.org/namespaces/inkscape" xmlns:rdf="http://www.w3.org/1999/02/22-rdf-syntax-ns#" xmlns:sodipodi="http://inkscape.sourceforge.net/DTD/sodipodi-0.dtd" xmlns:svg="http://www.w3.org/2000/svg"><defs id="defs3305"/><path d="M 96.442899,300.40862 L 96.442899,65.240788 L 293.2355,65.240788 L 490.02815,65.240788 L 490.02815,300.40862 L 490.02815,535.57645 L 293.2355,535.57645 L 96.442899,535.57645 L 96.442899,300.40862 z " id="path3327" style="fill:#ffffff;fill-opacity:1"/><path d="M 54.36163,581.74972 C 33.71848,579.30245 19.04406,569.61998 11.21702,553.28204 C 4.3901991,539.03192 4.8129191,557.1255 5.1025991,291.57325 L 5.3646791,51.317221 L 8.1039791,43.23881 C 14.62495,24.007983 26.97192,12.491098 46.86468,7.0840008 C 52.99454,5.4178288 67.08825,5.3172208 294.36468,5.3172208 L 535.36464,5.3172208 L 543.52204,8.0814708 C 563.91024,14.990299 575.66364,29.049385 579.81214,51.490671 C 580.51504,55.293091 580.85914,134.6908 580.87084,295.76481 C 580.88774,528.96785 580.84384,534.57885 578.94184,542.01545 C 576.31054,552.30383 572.68214,559.10866 566.20914,565.8949 C 559.84324,572.56893 552.01674,577.00667 541.17864,580.08757 L 533.36464,582.30882 L 297.36468,582.44438 C 167.56468,582.51894 58.21331,582.20634 54.36163,581.74972 z M 181.06995,525.26294 C 187.1455,523.1928 193.16031,517.88512 196.02677,512.06455 C 198.1295,507.79478 198.41498,505.55682 198.86468,489.81722 L 199.36468,472.31722 L 293.86468,472.31722 L 388.36464,472.31722 L 388.87854,490.31722 C 389.33304,506.23492 389.64104,508.77995 391.54094,512.31722 C 394.07324,517.03181 398.97764,521.85883 403.86464,524.44662 C 409.12244,527.23072 422.94054,527.05131 428.43294,524.12764 C 432.96894,521.71303 439.33324,515.13927 441.12774,511.01494 C 441.80264,509.4638 442.52744,500.66688 442.83314,490.31722 L 443.36464,472.31722 L 457.86464,471.81722 L 472.36464,471.31722 L 472.61984,378.6511 L 472.87504,285.98498 L 464.33754,220.1511 C 459.64204,183.94247 455.09994,151.86144 454.24424,148.85993 C 450.00354,133.98612 441.42584,124.4621 424.34344,115.66044 C 406.92954,106.68795 388.09494,100.95186 357.86464,95.414311 C 329.90869,90.293341 320.63353,89.409331 294.36468,89.362131 C 265.94217,89.311071 254.53716,90.498951 222.86468,96.809161 C 167.37146,107.86526 141.73942,122.32126 133.8875,146.99068 C 132.61032,151.00334 128.75874,177.45619 123.35662,219.31722 L 114.8394,285.31722 L 115.10204,378.31722 L 115.36468,471.31722 L 129.48747,471.5939 L 143.61027,471.87058 L 144.13675,488.5939 C 144.42631,497.79173 145.14817,506.85305 145.74088,508.73018 C 150.13133,522.63481 166.41672,530.2558 181.06995,525.26294 z M 161.11633,408.71274 C 153.19904,404.79375 148.86468,397.57827 148.86468,388.31722 C 148.86468,375.05163 158.21355,365.54424 171.36468,365.4357 C 181.34112,365.35336 190.19742,371.47584 193.30823,380.60558 C 196.18237,389.04072 194.44575,397.50368 188.57215,403.68561 C 181.76747,410.84748 169.84073,413.03125 161.11633,408.71274 z M 407.86464,410.17672 C 403.73444,408.5746 398.45544,403.97664 396.05144,399.8874 C 393.82694,396.10344 393.36464,394.11299 393.36464,388.31722 C 393.36464,382.44823 393.81794,380.54613 396.16994,376.54483 C 403.14714,364.67506 418.48424,361.68821 429.91984,369.97213 C 441.98354,378.71107 441.49064,398.51101 428.99054,407.2964 C 425.23484,409.93598 423.75184,410.33757 417.03384,410.53415 C 412.81584,410.65758 408.68964,410.49673 407.86464,410.17672 z M 155.17939,298.35356 C 151.3729,296.69801 148.86468,292.28404 148.86468,287.24091 C 148.86468,285.21932 152.03539,260.78447 155.91069,232.94125 C 163.45296,178.75174 164.14664,175.76017 170.18782,171.36919 C 172.99152,169.33134 173.82779,169.31518 291.68782,169.02097 C 373.46184,168.81684 411.50784,169.05567 414.04094,169.78903 C 418.40634,171.05282 422.38704,175.44865 423.82954,180.59827 C 424.40254,182.64369 428.11824,207.60543 432.08664,236.0688 C 438.92224,285.09732 439.22464,288.04393 437.83334,292.0688 C 434.92994,300.4676 447.04454,299.81902 293.86468,299.77652 C 180.66364,299.74512 157.84048,299.51095 155.17939,298.35356 z M 216.36468,142.66249 C 213.05182,140.85049 211.86468,138.64826 211.86468,134.31465 C 211.86468,129.35004 214.4295,126.16697 219.11073,125.32195 C 220.9004,124.99889 255.81627,124.86566 296.70155,125.02589 L 371.03844,125.31722 L 373.45154,128.12298 C 377.56464,132.90529 376.48234,139.83008 371.18044,142.65388 C 368.17164,144.25636 219.29389,144.26464 216.36468,142.66249 z " id="path3313" style="fill:#000000"/></svg>